<?xml version="1.0" encoding="utf-8"?>
<!-- Generator: Adobe Illustrator 24.1.3, SVG Export Plug-In . SVG Version: 6.00 Build 0)  -->
<svg version="1.1" id="Layer_1" xmlns="http://www.w3.org/2000/svg" xmlns:xlink="http://www.w3.org/1999/xlink" x="0px" y="0px"
	 viewBox="0 0 233.83 43.82" style="enable-background:new 0 0 233.83 43.82;" xml:space="preserve">
<style type="text/css">
	.st0{fill:#54B959;}
	.st1{fill:url(#SVGID_1_);}
	.st2{fill:url(#SVGID_2_);}
	.st3{fill:url(#SVGID_3_);}
	.st4{fill:url(#SVGID_4_);}
	.st5{fill:url(#SVGID_5_);}
	.st6{fill:url(#SVGID_6_);}
	.st7{fill:url(#SVGID_7_);}
	.st8{fill:url(#SVGID_8_);}
	.st9{fill:url(#SVGID_9_);}
	.st10{fill:url(#SVGID_10_);}
	.st11{fill:url(#SVGID_11_);}
	.st12{fill:url(#SVGID_12_);}
	.st13{fill:url(#SVGID_13_);}
	.st14{fill:url(#SVGID_14_);}
	.st15{fill:url(#SVGID_15_);}
	.st16{fill:url(#SVGID_16_);}
	.st17{fill:url(#SVGID_17_);}
	.st18{fill:url(#SVGID_18_);}
	.st19{fill:#FFFFFF;}
</style>
<g>
	<path class="st0" d="M26.95,18.59c0.92,0,1.66-0.74,1.66-1.66c0-0.92-0.74-1.66-1.66-1.66c-0.92,0-1.66,0.74-1.66,1.66
		c0,0.21,0.04,0.42,0.12,0.6l-2.58,2.58c-0.26-0.12-0.55-0.2-0.86-0.2c-0.31,0-0.6,0.07-0.86,0.2l-2.58-2.58
		c0.07-0.19,0.12-0.39,0.12-0.6c0-0.92-0.74-1.66-1.66-1.66s-1.66,0.74-1.66,1.66c0,0.92,0.74,1.66,1.66,1.66
		c0.21,0,0.42-0.04,0.6-0.12l2.58,2.58c-0.12,0.26-0.2,0.55-0.2,0.86c0,0.31,0.07,0.6,0.2,0.86l-2.58,2.58
		c-0.19-0.07-0.39-0.12-0.6-0.12c-0.92,0-1.66,0.74-1.66,1.66c0,0.92,0.74,1.66,1.66,1.66s1.66-0.74,1.66-1.66
		c0-0.21-0.04-0.42-0.12-0.6l2.58-2.58c0.26,0.12,0.55,0.2,0.86,0.2c0.31,0,0.6-0.07,0.86-0.2l2.58,2.58
		c-0.07,0.19-0.12,0.39-0.12,0.6c0,0.92,0.74,1.66,1.66,1.66c0.92,0,1.66-0.74,1.66-1.66c0-0.92-0.74-1.66-1.66-1.66
		c-0.21,0-0.42,0.04-0.6,0.12l-2.58-2.58c0.12-0.26,0.2-0.55,0.2-0.86c0-0.31-0.07-0.6-0.2-0.86l2.58-2.58
		C26.53,18.54,26.74,18.59,26.95,18.59z"/>
	<linearGradient id="SVGID_1_" gradientUnits="userSpaceOnUse" x1="0.6925" y1="21.9112" x2="43.235" y2="21.9112">
		<stop  offset="0" style="stop-color:#F2F2F2"/>
		<stop  offset="1" style="stop-color:#D0D2D3"/>
	</linearGradient>
	<path class="st1" d="M21.96,0.64c-11.73,0-21.27,9.54-21.27,21.27c0,11.73,9.54,21.27,21.27,21.27c11.73,0,21.27-9.54,21.27-21.27
		C43.24,10.18,33.69,0.64,21.96,0.64z M21.96,41.85c-11,0-19.94-8.95-19.94-19.94c0-11,8.95-19.94,19.94-19.94
		c11,0,19.94,8.95,19.94,19.94C41.91,32.91,32.96,41.85,21.96,41.85z"/>
	<linearGradient id="SVGID_2_" gradientUnits="userSpaceOnUse" x1="13.9046" y1="35.6964" x2="19.2345" y2="35.6964">
		<stop  offset="0" style="stop-color:#F2F2F2"/>
		<stop  offset="1" style="stop-color:#D0D2D3"/>
	</linearGradient>
	<path class="st2" d="M13.9,37.2c1.37,0.72,2.85,1.27,4.41,1.6l0.92-5.24c-0.94-0.22-1.83-0.55-2.67-0.97L13.9,37.2z"/>
	<linearGradient id="SVGID_3_" gradientUnits="userSpaceOnUse" x1="33.4183" y1="24.885" x2="39.232" y2="24.885">
		<stop  offset="0" style="stop-color:#F2F2F2"/>
		<stop  offset="1" style="stop-color:#D0D2D3"/>
	</linearGradient>
	<path class="st3" d="M33.91,22.58c-0.05,0.97-0.22,1.9-0.49,2.8l5,1.82c0.47-1.46,0.75-3.01,0.81-4.62H33.91z"/>
	<linearGradient id="SVGID_4_" gradientUnits="userSpaceOnUse" x1="31.5442" y1="14.261" x2="37.9659" y2="14.261">
		<stop  offset="0" style="stop-color:#F2F2F2"/>
		<stop  offset="1" style="stop-color:#D0D2D3"/>
	</linearGradient>
	<path class="st4" d="M32.96,17.2l5-1.82c-0.6-1.46-1.39-2.83-2.35-4.06l-4.07,3.42C32.11,15.5,32.59,16.32,32.96,17.2z"/>
	<linearGradient id="SVGID_5_" gradientUnits="userSpaceOnUse" x1="9.1613" y1="33.3155" x2="15.4155" y2="33.3155">
		<stop  offset="0" style="stop-color:#F2F2F2"/>
		<stop  offset="1" style="stop-color:#D0D2D3"/>
	</linearGradient>
	<path class="st5" d="M13.24,30.1l-4.08,3.42c1.05,1.16,2.26,2.17,3.59,3.01l2.66-4.61C14.62,31.4,13.89,30.79,13.24,30.1z"/>
	<linearGradient id="SVGID_6_" gradientUnits="userSpaceOnUse" x1="33.417" y1="18.9375" x2="39.2298" y2="18.9375">
		<stop  offset="0" style="stop-color:#F2F2F2"/>
		<stop  offset="1" style="stop-color:#D0D2D3"/>
	</linearGradient>
	<path class="st6" d="M33.91,21.25h5.32c-0.06-1.61-0.34-3.15-0.81-4.62l-5,1.82C33.69,19.34,33.86,20.28,33.91,21.25z"/>
	<linearGradient id="SVGID_7_" gradientUnits="userSpaceOnUse" x1="31.5426" y1="29.5615" x2="37.9653" y2="29.5615">
		<stop  offset="0" style="stop-color:#F2F2F2"/>
		<stop  offset="1" style="stop-color:#D0D2D3"/>
	</linearGradient>
	<path class="st7" d="M31.54,29.08l4.08,3.42c0.96-1.23,1.75-2.59,2.35-4.06l-5-1.82C32.59,27.5,32.11,28.33,31.54,29.08z"/>
	<linearGradient id="SVGID_8_" gradientUnits="userSpaceOnUse" x1="28.512" y1="33.3155" x2="34.7662" y2="33.3155">
		<stop  offset="0" style="stop-color:#F2F2F2"/>
		<stop  offset="1" style="stop-color:#D0D2D3"/>
	</linearGradient>
	<path class="st8" d="M28.51,31.92l2.66,4.61c1.33-0.84,2.54-1.85,3.59-3.01l-4.08-3.42C30.04,30.79,29.31,31.4,28.51,31.92z"/>
	<linearGradient id="SVGID_9_" gradientUnits="userSpaceOnUse" x1="19.62" y1="36.4918" x2="24.3085" y2="36.4918">
		<stop  offset="0" style="stop-color:#F2F2F2"/>
		<stop  offset="1" style="stop-color:#D0D2D3"/>
	</linearGradient>
	<path class="st9" d="M21.96,33.88c-0.48,0-0.95-0.03-1.42-0.09l-0.92,5.24c0.77,0.1,1.55,0.16,2.34,0.16s1.58-0.06,2.34-0.16
		l-0.92-5.24C22.92,33.84,22.44,33.88,21.96,33.88z"/>
	<linearGradient id="SVGID_10_" gradientUnits="userSpaceOnUse" x1="5.9617" y1="14.2616" x2="12.3849" y2="14.2616">
		<stop  offset="0" style="stop-color:#F2F2F2"/>
		<stop  offset="1" style="stop-color:#D0D2D3"/>
	</linearGradient>
	<path class="st10" d="M12.38,14.74l-4.08-3.42c-0.96,1.23-1.75,2.59-2.35,4.06l5,1.82C11.34,16.32,11.82,15.5,12.38,14.74z"/>
	<linearGradient id="SVGID_11_" gradientUnits="userSpaceOnUse" x1="24.6928" y1="8.126" x2="30.0229" y2="8.126">
		<stop  offset="0" style="stop-color:#F2F2F2"/>
		<stop  offset="1" style="stop-color:#D0D2D3"/>
	</linearGradient>
	<path class="st11" d="M30.02,6.62c-1.37-0.72-2.85-1.27-4.41-1.6l-0.92,5.24c0.94,0.22,1.83,0.55,2.67,0.97L30.02,6.62z"/>
	<linearGradient id="SVGID_12_" gradientUnits="userSpaceOnUse" x1="24.6934" y1="35.6963" x2="30.0229" y2="35.6963">
		<stop  offset="0" style="stop-color:#F2F2F2"/>
		<stop  offset="1" style="stop-color:#D0D2D3"/>
	</linearGradient>
	<path class="st12" d="M24.69,33.56l0.92,5.24c1.56-0.34,3.04-0.88,4.4-1.6l-2.66-4.61C26.52,33.01,25.63,33.34,24.69,33.56z"/>
	<linearGradient id="SVGID_13_" gradientUnits="userSpaceOnUse" x1="4.6975" y1="18.9377" x2="10.5093" y2="18.9377">
		<stop  offset="0" style="stop-color:#F2F2F2"/>
		<stop  offset="1" style="stop-color:#D0D2D3"/>
	</linearGradient>
	<path class="st13" d="M10.51,18.45l-5-1.82c-0.47,1.46-0.75,3.01-0.81,4.62h5.32C10.07,20.28,10.24,19.34,10.51,18.45z"/>
	<linearGradient id="SVGID_14_" gradientUnits="userSpaceOnUse" x1="5.9617" y1="29.5612" x2="12.3843" y2="29.5612">
		<stop  offset="0" style="stop-color:#F2F2F2"/>
		<stop  offset="1" style="stop-color:#D0D2D3"/>
	</linearGradient>
	<path class="st14" d="M10.96,26.62l-5,1.82c0.6,1.46,1.39,2.83,2.35,4.06l4.07-3.42C11.82,28.33,11.34,27.5,10.96,26.62z"/>
	<linearGradient id="SVGID_15_" gradientUnits="userSpaceOnUse" x1="9.1619" y1="10.5068" x2="15.4155" y2="10.5068">
		<stop  offset="0" style="stop-color:#F2F2F2"/>
		<stop  offset="1" style="stop-color:#D0D2D3"/>
	</linearGradient>
	<path class="st15" d="M15.42,11.9l-2.66-4.61c-1.33,0.84-2.54,1.85-3.59,3.01l4.08,3.42C13.89,13.03,14.62,12.42,15.42,11.9z"/>
	<linearGradient id="SVGID_16_" gradientUnits="userSpaceOnUse" x1="28.5114" y1="10.5071" x2="34.7656" y2="10.5071">
		<stop  offset="0" style="stop-color:#F2F2F2"/>
		<stop  offset="1" style="stop-color:#D0D2D3"/>
	</linearGradient>
	<path class="st16" d="M30.69,13.72l4.08-3.42c-1.05-1.16-2.26-2.17-3.59-3.01l-2.66,4.61C29.31,12.42,30.04,13.03,30.69,13.72z"/>
	<linearGradient id="SVGID_17_" gradientUnits="userSpaceOnUse" x1="4.6978" y1="24.885" x2="10.5096" y2="24.885">
		<stop  offset="0" style="stop-color:#F2F2F2"/>
		<stop  offset="1" style="stop-color:#D0D2D3"/>
	</linearGradient>
	<path class="st17" d="M10.02,22.58H4.7c0.06,1.6,0.34,3.15,0.81,4.62l5-1.82C10.24,24.48,10.07,23.54,10.02,22.58z"/>
	<linearGradient id="SVGID_18_" gradientUnits="userSpaceOnUse" x1="13.9049" y1="8.126" x2="19.2351" y2="8.126">
		<stop  offset="0" style="stop-color:#F2F2F2"/>
		<stop  offset="1" style="stop-color:#D0D2D3"/>
	</linearGradient>
	<path class="st18" d="M19.24,10.26l-0.92-5.24c-1.56,0.34-3.04,0.88-4.41,1.6l2.66,4.61C17.4,10.81,18.3,10.48,19.24,10.26z"/>
	<path class="st0" d="M21.96,9.95c0.48,0,0.95,0.03,1.42,0.09l0.92-5.24c-0.76-0.1-1.55-0.16-2.34-0.16c-0.8,0-1.58,0.06-2.34,0.16
		l0.92,5.24C21.01,9.98,21.48,9.95,21.96,9.95z"/>
	<path class="st0" d="M49.82,34.3V9.52h9.47c2.33,0,4.05,0.55,5.17,1.65c1.12,1.1,1.68,2.7,1.68,4.8c0,0.99-0.15,1.85-0.45,2.6
		c-0.3,0.75-0.71,1.37-1.23,1.85c-0.51,0.48-1.12,0.81-1.81,0.99c0.51,0.13,1.02,0.34,1.53,0.62c0.5,0.28,0.97,0.67,1.39,1.16
		c0.42,0.49,0.76,1.09,1.01,1.8c0.25,0.71,0.37,1.53,0.37,2.47c0,1.7-0.29,3.05-0.86,4.05c-0.57,1-1.4,1.71-2.48,2.15
		s-2.39,0.65-3.91,0.65H49.82z M53.95,20h5.41c0.83,0,1.5-0.31,2.02-0.92c0.51-0.62,0.78-1.43,0.81-2.43
		c0.02-1.28-0.25-2.16-0.82-2.65c-0.57-0.49-1.27-0.74-2.1-0.74h-5.31V20z M53.95,30.57h5.61c0.69,0,1.3-0.12,1.81-0.37
		c0.51-0.25,0.91-0.64,1.19-1.19c0.28-0.55,0.42-1.3,0.42-2.27c0-0.76-0.15-1.4-0.44-1.91c-0.29-0.51-0.69-0.91-1.21-1.19
		c-0.51-0.28-1.11-0.42-1.78-0.42h-5.61V30.57z"/>
	<path class="st0" d="M75.57,34.47c-0.54,0-1.14-0.05-1.8-0.15c-0.66-0.1-1.29-0.32-1.9-0.67c-0.6-0.35-1.1-0.87-1.48-1.56
		c-0.38-0.69-0.57-1.65-0.57-2.85v-14.3c0-1.05,0.16-1.93,0.47-2.64c0.31-0.7,0.73-1.26,1.26-1.66c0.53-0.4,1.11-0.69,1.75-0.86
		c0.64-0.17,1.27-0.25,1.9-0.25c1.57,0,2.98,0.02,4.23,0.07c1.25,0.05,2.4,0.09,3.44,0.13c1.04,0.05,2.01,0.1,2.9,0.17v3.46h-9.37
		c-0.76,0-1.36,0.19-1.8,0.57c-0.44,0.38-0.66,0.97-0.66,1.78v4.4l10.31,0.23v3.26l-10.31,0.24v4.26c0,0.67,0.12,1.19,0.35,1.54
		c0.24,0.36,0.54,0.6,0.91,0.74c0.37,0.13,0.76,0.2,1.16,0.2h9.4v3.46c-0.99,0.09-2.06,0.16-3.22,0.22
		c-1.16,0.06-2.35,0.1-3.54,0.13C77.82,34.42,76.67,34.45,75.57,34.47z"/>
	<path class="st0" d="M95.11,34.3V13.25h-7.12V9.52h18.37v3.73h-7.08V34.3H95.11z"/>
	<path class="st19" d="M109.62,34.3V9.66h9.57c0.74,0,1.48,0.08,2.22,0.25c0.74,0.17,1.41,0.49,2.01,0.97
		c0.6,0.48,1.09,1.19,1.44,2.13c0.36,0.94,0.54,2.17,0.54,3.69c0,1.41-0.16,2.56-0.47,3.44c-0.31,0.88-0.72,1.57-1.21,2.06
		c-0.49,0.49-1.03,0.85-1.61,1.06c-0.58,0.21-1.13,0.35-1.65,0.42l5.17,10.61h-1.95l-5.07-10.41c-0.38,0-0.87-0.01-1.48-0.02
		c-0.6-0.01-1.24-0.02-1.91-0.03c-0.67-0.01-1.33-0.03-1.98-0.05c-0.65-0.02-1.21-0.03-1.68-0.03V34.3H109.62z M111.56,22.28h7.39
		c0.6,0,1.17-0.07,1.71-0.2c0.54-0.13,1.02-0.4,1.44-0.79c0.42-0.39,0.76-0.96,0.99-1.7c0.24-0.74,0.35-1.7,0.35-2.89
		c0-1.14-0.12-2.06-0.37-2.75c-0.25-0.69-0.58-1.23-1.01-1.6c-0.43-0.37-0.91-0.62-1.44-0.76c-0.54-0.13-1.1-0.2-1.68-0.2h-7.39
		V22.28z"/>
	<path class="st19" d="M137,34.5c-1.54,0-2.9-0.15-4.08-0.44c-1.18-0.29-2.15-0.86-2.92-1.7c-0.77-0.84-1.35-2.09-1.75-3.74
		c-0.39-1.66-0.59-3.83-0.59-6.51c0-2.71,0.2-4.9,0.59-6.56c0.39-1.67,0.98-2.94,1.78-3.83c0.79-0.88,1.77-1.48,2.94-1.8
		c1.16-0.31,2.51-0.47,4.03-0.47c1.59,0,2.97,0.16,4.15,0.47c1.18,0.31,2.15,0.91,2.92,1.8c0.77,0.88,1.34,2.16,1.71,3.83
		c0.37,1.67,0.55,3.86,0.55,6.56c0,2.69-0.19,4.86-0.57,6.51s-0.96,2.9-1.75,3.74c-0.78,0.84-1.76,1.41-2.92,1.7
		C139.94,34.36,138.57,34.5,137,34.5z M137,32.76c1.32,0,2.45-0.13,3.39-0.39c0.94-0.26,1.71-0.76,2.3-1.49
		c0.59-0.74,1.02-1.81,1.29-3.21c0.27-1.4,0.4-3.25,0.4-5.56c0-2.42-0.14-4.35-0.42-5.81c-0.28-1.45-0.72-2.55-1.31-3.27
		c-0.59-0.73-1.35-1.21-2.28-1.46c-0.93-0.25-2.05-0.37-3.37-0.37c-1.21,0-2.28,0.12-3.21,0.37c-0.93,0.25-1.7,0.73-2.32,1.46
		c-0.62,0.73-1.08,1.82-1.39,3.27c-0.31,1.46-0.47,3.39-0.47,5.81c0,2.31,0.13,4.16,0.39,5.56c0.26,1.4,0.68,2.47,1.26,3.21
		c0.58,0.74,1.34,1.24,2.28,1.49C134.49,32.63,135.64,32.76,137,32.76z"/>
	<path class="st19" d="M158.35,34.5c-1.54,0-2.9-0.15-4.08-0.44c-1.18-0.29-2.15-0.86-2.92-1.7c-0.77-0.84-1.35-2.09-1.75-3.74
		c-0.39-1.66-0.59-3.83-0.59-6.51c0-2.71,0.2-4.9,0.59-6.56c0.39-1.67,0.98-2.94,1.78-3.83c0.79-0.88,1.77-1.48,2.94-1.8
		c1.16-0.31,2.51-0.47,4.03-0.47c1.59,0,2.97,0.16,4.15,0.47c1.18,0.31,2.15,0.91,2.92,1.8c0.77,0.88,1.34,2.16,1.71,3.83
		c0.37,1.67,0.55,3.86,0.55,6.56c0,2.69-0.19,4.86-0.57,6.51c-0.38,1.66-0.96,2.9-1.75,3.74c-0.78,0.84-1.76,1.41-2.92,1.7
		C161.28,34.36,159.91,34.5,158.35,34.5z M158.35,32.76c1.32,0,2.45-0.13,3.39-0.39c0.94-0.26,1.71-0.76,2.3-1.49
		c0.59-0.74,1.02-1.81,1.29-3.21c0.27-1.4,0.4-3.25,0.4-5.56c0-2.42-0.14-4.35-0.42-5.81c-0.28-1.45-0.72-2.55-1.31-3.27
		c-0.59-0.73-1.35-1.21-2.28-1.46c-0.93-0.25-2.05-0.37-3.37-0.37c-1.21,0-2.28,0.12-3.21,0.37c-0.93,0.25-1.7,0.73-2.32,1.46
		c-0.62,0.73-1.08,1.82-1.39,3.27c-0.31,1.46-0.47,3.39-0.47,5.81c0,2.31,0.13,4.16,0.39,5.56c0.26,1.4,0.68,2.47,1.26,3.21
		c0.58,0.74,1.34,1.24,2.28,1.49C155.83,32.63,156.98,32.76,158.35,32.76z"/>
	<path class="st19" d="M170.4,34.3l2.79-24.64h2.11l6.82,22.06l6.71-22.06h2.15l2.85,24.64h-1.88l-2.62-22.7l0.37,0.07l-6.68,22.63
		h-1.81l-6.82-22.6l0.4-0.07l-2.52,22.66H170.4z"/>
	<path class="st0" d="M196.78,34.3v-3.36l8.6-8.43c0.76-0.74,1.38-1.42,1.85-2.05c0.47-0.63,0.82-1.25,1.04-1.86
		c0.22-0.62,0.34-1.29,0.34-2.03c0-0.67-0.13-1.26-0.39-1.76s-0.69-0.89-1.31-1.16c-0.62-0.27-1.47-0.4-2.57-0.4h-6.88V9.99
		c1.05-0.18,2.22-0.34,3.51-0.47c1.29-0.13,2.69-0.2,4.21-0.2c1.92,0,3.44,0.26,4.53,0.79c1.1,0.53,1.88,1.29,2.35,2.28
		c0.47,1,0.7,2.18,0.7,3.54c0,1.12-0.15,2.15-0.45,3.09c-0.3,0.94-0.76,1.84-1.38,2.7c-0.62,0.86-1.39,1.75-2.33,2.67l-6.28,6.14
		h11.25v3.76H196.78z"/>
	<path class="st0" d="M226.12,34.27v-5.61h-11.15l-0.81-2.05l8.49-17.09h4.26l-7.86,15.61h7.05v-5.47l0.87-2.65h3.29v8.13h2.85v2.85
		l-2.85,0.67v5.61H226.12z"/>
</g>
</svg>
